# xmcd
#
# Track frame offsets:
#  150
#  1160
#  24940
#  49241
#  72266
#  94765
#  121922
#  153979
#  171371
#  187510
#  215550
#  239697
#  268221
#  283492
#  303892
#
# Disc length: 4301 seconds
#
# Revision: 1
# Processed by: cddbd v1.5.1PL0 Copyright (c) Steve Scherf et al.
# Submitted via: Collectorz.com_Music_Collector 6.9
#
DISCID=ce10cb0f
DTITLE=Steve Tallis - The Holy Ghosts - Loco
DYEAR=2004
DGENRE=Blues -  Blues Voodoo
TTITLE0=The Blessing
TTITLE1=Animal
TTITLE2=Papa Loco
TTITLE3=Healing By The First Intention
TTITLE4=My Hands Are On Fire
TTITLE5=Coward Howard
TTITLE6=Prayer Wheel
TTITLE7=Kama
TTITLE8=Dynamite
TTITLE9=Out Of Control
TTITLE10=From Disease
TTITLE11=My Conscience Is Clear
TTITLE12=Stop The Racist Bus
TTITLE13=For God's Sake
TTITLE14=Sacred Love
EXTD=
EXTT0=
EXTT1=
EXTT2=
EXTT3=
EXTT4=
EXTT5=
EXTT6=
EXTT7=
EXTT8=
EXTT9=
EXTT10=
EXTT11=
EXTT12=
EXTT13=
EXTT14=
PLAYORDER=
